<?xml version="1.0" encoding="utf-8"?>
<!DOCTYPE svg PUBLIC "-//W3C//DTD SVG 1.1//EN"
        "http://www.w3.org/Graphics/SVG/1.1/DTD/svg11.dtd">
<svg version="1.1" id="Layer_1" xmlns="http://www.w3.org/2000/svg"
     xmlns:xlink="http://www.w3.org/1999/xlink" x="0px" y="0px"
     width="750px" height="130px" viewBox="200 333 750 130" xml:space="preserve">
<g>
    <g id="logo">

        <g id="f">
            <linearGradient id="f_middle" gradientUnits="userSpaceOnUse" x1="146.2036" y1="934.3281" x2="211.8975" y2="934.3281" gradientTransform="matrix(0.4785 0.8782 -0.8782 0.4785 1263.0259 -209.2598)">
                <stop  offset="0" style="stop-color:#021B36"/>
                <stop  offset="0.5" style="stop-color:#3A6DA7"/>
                <stop  offset="1" style="stop-color:#021B36"/>
            </linearGradient>
            <path fill="url(#f_middle)" d="M544.201,354.154l-0.125-0.281l-1.187-1.809c-0.873-0.463-2.109-0.399-3.592,0.328l-14.962,7.348
                l-13.566,71.4c-0.158,0.827-0.17,1.549-0.071,2.166l0.114,0.256l1.133,1.738c0.875,0.494,2.132,0.441,3.644-0.301l12.043-2.395
                c1.628-0.322,3.23-2.182,3.583-4.152l12.906-72.202C544.272,355.456,544.289,354.755,544.201,354.154z"/>

            <linearGradient id="f_bottom" gradientUnits="userSpaceOnUse" x1="347.0396" y1="344.9722" x2="347.0396" y2="413.5425" gradientTransform="matrix(0.3151 0.9491 0.9491 -0.3151 35.7324 219.7539)">
                <stop  offset="0.1182" style="stop-color:#021B36"/>
                <stop  offset="0.8768" style="stop-color:#3A6DA7"/>
            </linearGradient>
            <path fill="url(#f_bottom)" d="M476.458,443.717c-3.569,0.898-3.788,0.091-0.487-1.803L496.24,430.1l7.833-4.482l29.709-16.195
                c0.331-0.189,0.673-0.068,0.764,0.27l-1.965,11.176c0,0-0.284,2.514-0.805,5.291c-0.538,2.858-0.623,6.173-7.28,7.555
                l-25.593,5.327L476.458,443.717z"/>

            <linearGradient id="f_top" gradientUnits="userSpaceOnUse" x1="-182.3179" y1="67.5527" x2="-182.3179" y2="136.1226" gradientTransform="matrix(-0.3151 -0.9491 -0.9491 0.3151 589.7617 152.208)">
                <stop  offset="0.1182" style="stop-color:#021B36"/>
                <stop  offset="0.8768" style="stop-color:#3A6DA7"/>
            </linearGradient>
            <path fill="url(#f_top)" d="M579.136,343.244c3.569-0.897,3.788-0.091,0.489,1.803l-20.271,11.813l-7.833,4.482l-29.71,16.196
                c-0.33,0.189-0.671,0.067-0.762-0.27l1.965-11.176c0,0,0.284-2.514,0.805-5.292c0.538-2.858,0.623-6.172,7.28-7.555l25.593-5.327
                L579.136,343.244z"/>
        </g>

        <g id="left_bracket">

            <linearGradient id="left_bracket_top" gradientUnits="userSpaceOnUse" x1="531.2104" y1="451.0684" x2="577.7909" y2="370.3886">
                <stop  offset="0.6502" style="stop-color:#021B36"/>
                <stop  offset="0.803" style="stop-color:#3A6DA7"/>
            </linearGradient>
            <path fill="url(#left_bracket_top)" d="M573.124,370.421l-8.772,12.55l-10.006,14.31c-0.72,1.028-1.121,1.896-1.313,2.65
                c-0.018,0.079-0.041,0.156-0.055,0.231c-0.009,0.036-0.015,0.074-0.022,0.11c-0.021,0.126-0.038,0.246-0.047,0.366
                c-0.003,0.035-0.007,0.071-0.009,0.109c-0.006,0.084-0.005,0.162-0.005,0.244c0.001,0.09,0.001,0.18,0.011,0.273
                c0.003,0.027,0.006,0.053,0.008,0.08c0.014,0.128,0.033,0.259,0.061,0.395c0.004,0.025,0.011,0.053,0.017,0.078
                c0.02,0.086,0.045,0.175,0.071,0.264c0.258,0.835,0.767,1.523,1.203,2.205c1.019,1.587,2.031,2.941,2.031,2.941l0.073,0.111
                l4.506,6.152c0.032-0.039,0.06-0.09,0.078-0.146l4.186-12.786l2.846-8.694l1.756-5.766l4.447-15.024
                C574.926,368.642,574.449,368.351,573.124,370.421z"/>

            <linearGradient id="left_bracket_bottom" gradientUnits="userSpaceOnUse" x1="542.771" y1="452.874" x2="575.1449" y2="396.8008">
                <stop  offset="0.1182" style="stop-color:#021B36"/>
                <stop  offset="0.8768" style="stop-color:#3A6DA7"/>
            </linearGradient>
            <path fill="url(#left_bracket_bottom)" d="M574.64,430.699l-4.775-14.926l-1.88-5.726l-3.042-9.243l-3.969-12.061
                c-0.079-0.241-0.303-0.332-0.5-0.208l-4.509,6.407c0,0-0.983,1.374-1.965,2.985c-0.425,0.696-0.922,1.397-1.161,2.247
                c-0.021,0.076-0.042,0.156-0.058,0.23c-0.006,0.036-0.015,0.074-0.021,0.111c-0.021,0.124-0.036,0.246-0.048,0.363
                c-0.003,0.039-0.006,0.074-0.009,0.111c-0.003,0.084-0.003,0.164-0.003,0.243c0.001,0.09,0.003,0.181,0.011,0.274
                c0.001,0.026,0.006,0.054,0.007,0.081c0.014,0.126,0.034,0.259,0.061,0.394c0.006,0.025,0.012,0.051,0.018,0.078
                c0.018,0.086,0.045,0.174,0.07,0.264c0.26,0.835,0.766,1.521,1.203,2.205c1.019,1.589,2.032,2.94,2.032,2.94l0.073,0.112
                l4.505,6.153l3.867,5.282l9.045,12.354C574.959,433.416,575.43,433.115,574.64,430.699z"/>
        </g>

        <g id="right_bracket">

            <linearGradient id="right_bracket_bottom" gradientUnits="userSpaceOnUse" x1="148.5532" y1="320.8086" x2="195.1334" y2="240.1293" gradientTransform="matrix(-1 0 0 -1 808.3848 671.5078)">
                <stop  offset="0.6502" style="stop-color:#021B36"/>
                <stop  offset="0.803" style="stop-color:#3A6DA7"/>
            </linearGradient>
            <path fill="url(#right_bracket_bottom)" d="M617.919,431.348l8.773-12.55l10.007-14.31c0.718-1.027,1.119-1.895,1.311-2.65
                c0.019-0.077,0.043-0.156,0.058-0.23c0.008-0.036,0.014-0.074,0.02-0.111c0.023-0.125,0.039-0.247,0.049-0.364
                c0.004-0.038,0.008-0.074,0.011-0.11c0.003-0.084,0.003-0.164,0.002-0.243c-0.002-0.091-0.002-0.181-0.011-0.274
                c-0.002-0.027-0.005-0.054-0.006-0.08c-0.016-0.129-0.033-0.26-0.061-0.395c-0.007-0.027-0.013-0.053-0.019-0.079
                c-0.019-0.085-0.046-0.175-0.07-0.263c-0.26-0.836-0.767-1.521-1.204-2.203c-1.02-1.591-2.031-2.944-2.031-2.944l-0.072-0.11
                l-4.506-6.153c-0.033,0.041-0.061,0.09-0.078,0.149l-4.186,12.783l-2.846,8.694l-1.754,5.766l-4.449,15.026
                C616.12,433.127,616.596,433.418,617.919,431.348z"/>

            <linearGradient id="right_bracket_top" gradientUnits="userSpaceOnUse" x1="160.1133" y1="322.6113" x2="192.4867" y2="266.539" gradientTransform="matrix(-1 0 0 -1 808.3848 671.5078)">
                <stop  offset="0.1182" style="stop-color:#021B36"/>
                <stop  offset="0.8768" style="stop-color:#3A6DA7"/>
            </linearGradient>
            <path fill="url(#right_bracket_top)" d="M616.404,371.071l4.773,14.924l1.882,5.726l3.043,9.244l3.967,12.061
                c0.08,0.24,0.304,0.334,0.501,0.207l4.511-6.406c0,0,0.981-1.376,1.965-2.986c0.425-0.697,0.922-1.396,1.16-2.246
                c0.02-0.077,0.041-0.156,0.057-0.23c0.008-0.037,0.015-0.073,0.021-0.111c0.022-0.126,0.038-0.246,0.049-0.364
                c0.003-0.036,0.006-0.073,0.009-0.11c0.005-0.082,0.004-0.163,0.004-0.244c-0.002-0.091-0.002-0.18-0.01-0.273
                c-0.003-0.027-0.006-0.053-0.01-0.08c-0.014-0.127-0.033-0.26-0.061-0.395c-0.004-0.026-0.012-0.054-0.016-0.079
                c-0.021-0.085-0.048-0.175-0.072-0.263c-0.258-0.836-0.766-1.521-1.203-2.204c-1.018-1.591-2.03-2.943-2.03-2.943l-0.073-0.111
                l-4.506-6.153l-3.867-5.28l-9.045-12.356C616.083,368.354,615.612,368.654,616.404,371.071z"/>
        </g>

        <g id="x">

            <linearGradient id="x_top_left" gradientUnits="userSpaceOnUse" x1="763.1611" y1="710.7676" x2="812.8186" y2="710.7676" gradientTransform="matrix(0 -1 -1 0 1299.1738 1196.3242)">
                <stop  offset="0.6207" style="stop-color:#021B36"/>
                <stop  offset="0.8768" style="stop-color:#3A6DA7"/>
            </linearGradient>
            <path fill="url(#x_top_left)" d="M592.611,397.922c0,0,0.25-0.45,0.617-1.061l0.628-1.107c0.449-0.793,0.832-1.242,1.167-1.466
                c-0.218,0.161-0.412,0.415-0.597,0.69c0.152-0.212,0.311-0.403,0.487-0.534c0.039-0.027,0.079-0.055,0.116-0.075
                c0.013-0.007,0.025-0.014,0.035-0.019c0.061-0.03,0.12-0.052,0.178-0.065c0.011-0.003,0.023-0.008,0.035-0.011
                c0.043-0.008,0.082-0.008,0.123-0.009c0.031,0,0.064,0,0.098,0.003l-4.039-3.194l-2.561-2.023l-6.677-5.132
                c-1.082-0.851-1.215-0.345-0.305,1.127l5.529,9.722l2.361,4.159l1.113,1.958l1.641-2.885L592.611,397.922z"/>

            <linearGradient id="x_bottom_right" gradientUnits="userSpaceOnUse" x1="821.623" y1="537.9473" x2="771.9655" y2="537.9473" gradientTransform="matrix(0 -1 1 0 64.7168 1196.3242)">
                <stop  offset="0.4828" style="stop-color:#021B36"/>
                <stop  offset="0.7635" style="stop-color:#3A6DA7"/>
            </linearGradient>
            <path fill="url(#x_bottom_right)" d="M609.185,416.224l-5.613-9.433l-3.515-5.906l-0.333,0.559l-1.508,2.552
                c0,0-0.209,0.36-0.527,0.868l-0.518,0.873c-0.266,0.444-0.504,0.772-0.727,1.014c-0.178,0.245-0.364,0.467-0.568,0.606
                c-0.035,0.021-0.068,0.044-0.104,0.06c-0.018,0.009-0.032,0.016-0.051,0.023c-0.055,0.023-0.109,0.04-0.16,0.053
                c-0.013,0.001-0.023,0.004-0.034,0.006l0.177,0.139l3.888,3.06l2.579,1.887l6.723,4.782
                C609.981,418.157,610.111,417.645,609.185,416.224z"/>

            <linearGradient id="x_middle" gradientUnits="userSpaceOnUse" x1="579.7002" y1="416.5654" x2="610.9746" y2="385.291">
                <stop  offset="0" style="stop-color:#021B36"/>
                <stop  offset="0.5" style="stop-color:#3A6EA7"/>
                <stop  offset="1" style="stop-color:#021B36"/>
            </linearGradient>
            <path fill="url(#x_middle)" d="M608.894,384.404l-6.723,4.781l-2.579,1.889l-3.888,3.059l-0.177,0.139l-0.013,0.011
                l-0.016-0.014c-0.033-0.003-0.066-0.003-0.098-0.003c-0.041,0.001-0.08,0.001-0.123,0.009c-0.012,0.003-0.024,0.008-0.035,0.011
                c-0.058,0.014-0.117,0.035-0.178,0.065c-0.01,0.005-0.022,0.012-0.035,0.019c-0.037,0.021-0.077,0.048-0.116,0.075
                c-0.177,0.131-0.335,0.322-0.487,0.534c0.185-0.275,0.379-0.529,0.597-0.69c-0.335,0.224-0.718,0.673-1.167,1.466l-0.628,1.107
                c-0.367,0.61-0.617,1.061-0.617,1.061L592.563,398l-1.641,2.885l-1.113,1.957l-2.361,4.159l-5.527,9.724
                c-0.912,1.471-0.779,1.977,0.303,1.125l6.677-5.132l2.561-2.021l4.04-3.196l0.015-0.012l0.013,0.01
                c0.011-0.002,0.021-0.005,0.034-0.006c0.051-0.013,0.105-0.029,0.16-0.053c0.019-0.008,0.033-0.015,0.051-0.023
                c0.035-0.016,0.068-0.039,0.104-0.06c0.204-0.14,0.391-0.361,0.568-0.606c0.223-0.241,0.461-0.569,0.727-1.014l0.518-0.873
                c0.318-0.508,0.527-0.868,0.527-0.868l1.508-2.552l0.333-0.559l3.515-5.907l5.613-9.433
                C610.11,384.125,609.981,383.61,608.894,384.404z"/>
        </g>
    </g>
    <g id="bijles">
        <text transform="translate(200 432)" fill="#285E8D" font-family="serif" font-size="112">Bijles</text>
    </g>
    <g id="bijles">
        <text transform="translate(551 432)" fill="rgba(1,1,1,0)" font-family="serif" font-size="112">fo</text>
    </g>
    <g id="rmule">
        <text transform="translate(644 432)" fill="#285E8D" font-family="serif" font-size="112">rmule</text>
    </g>
</g>
</svg>